/* XPM */
static char *andesite[] = {
/* columns rows colors chars-per-pixel */
"64 64 6 1 ",
"  c gray50",
". c #8A8A8E",
"X c #747474",
"o c gray61",
"O c #A8AA9A",
"+ c #686868",
/* pixels */
" ..    XX .oOOOo...ooo... XX  X++XX .  . XX ...  . ..oo..  .. XX",
".   XXX ..oooOOOoo. .oo.XXX++++X  ..o..   XX .oo. X o.   X  XXX ",
"oo XX. ooo.....oOOo.  .   ++X  .ooOOoo  .. .  .oo. X XX+++XX ..o",
"o..   oo..... ...ooo..oo.. X+X oOOoOOOoo... X...   XXX++XXX ..oo",
".   oo..  .  X ....  ..oo..oooOOo.oo.  .o    X XX XX  X.oo .oo..",
".. ....  ...  XX  ..    . ..oOO  . .  .... XX XX+XX  . oo.  .  .",
"  .oo..oo  ...  XX  ..   ooo.... XX  X .  XXX+++X   . .  ..  .. ",
" ...oo..oo...  XX  ....oo.o.    .. XX    ++X++X.  ....  ..  .. .",
"   o... ..ooo.. oooo....  . .  . X++XX+X++ oOOOo.  ..oo.  XX    ",
" X  ..     .oo....oooo...  ...  XXX+++X  ....oOOoo. oo.    XXX  ",
"  XX  XX  ..  .. .. ..o...... XXX   .  oOOo.ooo...oo.....     X ",
"X+X X  XXX ..     ..  .... . X .  ...oOOo .o....  .oo..  ...X XX",
"+X....     XXX  .    ..  XX  ..oOo.oOOoo..  ..   .....XX  .  X+X",
"X .o  .. X++X ..  X ..  XX .  oOOOoo.OOooo.oo..   ...X  ..  XXX+",
" oo..   . XX+++XXX     X .ooOooo..ooo. ..ooo.. ....   XX  X +++ ",
"OOoo   o..   X++X   XX ..oOOoo...oo.... oo..  ....  X+X  X XX+ .",
"o.OOoo..ooOOo..  XXX..oOOOoo...  ...  ....o  ....... X+++XXX .oo",
"...oo....ooOOoo.. X.ooOOo..oo.  .    X ........  ..   XX++  .oo.",
" .....  .  ooOOooOOoo.  ..o.  .... XX   .. .  XX   ..  XX .oo.  ",
". ...    .oo  o.OOo..  X  ...  .... XX .. X .  XX    . ...oo.  .",
".. .... XX  . XX ... .. XX ....  ...  XX   X++X++X..oOOOoo. ....",
".   .. XX  . X ...  .... XXX..  ..   XX X XXXX++X..oOOoo   .  ..",
"o..  XX  ...oo..  XX  .     X .. XX X++X+++X ..oOOoOo.... oo..  ",
".oo.  XX  ...oo..  XX  ... XXX  X+XX XX++X .ooOOooooooo  . oo.. ",
" ..ooo..XXX  ..o    ...oo..   XXXX++XX  ..oo.Oo .ooOOo  .....  .",
". ooo..   XX  ... .. .oo.    X ++XX . .ooo..   ...OOo... X .  ..",
"XX  oo.. Xoo...oo..oOO..  XXX++X  .oooOOo..   .  .oo......XX X .",
"   X .oo.  .ooo.OoOOOo  .. X++X ooooOOooooo..  .  .oo.oo... XXX ",
". XX X   ..oo.OOo.oOo  .. X+X..oOOo..oo.o.  ......  .o  .  .X  .",
"o..XX  ....  X ooo. ...  XX ..oOo ....oo.  .  ...  . X ...    .o",
"Ooo.    .  XX++X   ..  .X  ooo..  .  ...oo.... ... XX.. XX  .oOO",
"oO.. X+X .  XX++X XX  ... ..o.. ..  XX . ooo ...  XX.. ++XX oOOo",
"  .  .X++XX++X ..oo XX  ..  X    ...  X X  ..  ..   X++X .OOoo. ",
".  ...  X+++X.ooOo..  X   XX  .....  XXX  ..  .. X+X++X OOOo.  .",
"oo. ....  oo.ooOOOo..  .    XX  .  ..  X .XX  X+++X  .OOo...  ..",
".oo.  . X .oOOOoo..oo.o. X   XX  .  ..  XX   XXX ...oOoooo.     ",
"...  XXX..OOooo.  ..oo  . XXXX++XX .  X++XX   ..oOOooo....oo... ",
".   XX  .Ooo.o.  ..oo  ... XX++XXXX  X+X  ...oOOOOoo....oo.  . .",
" . X ...oo....oo.  .o... ...  XXX+++XX  .ooOOOo.o...o..oo.  oo..",
".o.   .oo.o.  .oo.  ..  ...  XXX++XX ..oo.OOoo...  .....   ..oo.",
" .oo.. ... ..  ..oo.  X .  XX  XX  ..oOOoo.oo.oo..  ..  .. oo.. ",
"  ..oo..  .. ..oo.  XX   .    X  ..oOOOoo   ....oo..     .. .  .",
" ..  oooo.  .o.. XXX++XX+X+    ..  ..oo....    ..oo.. ..    XX  ",
"..  ...o.  .o.    X++X++++XXX.  ..  ..oo  ..  .oo..  .. .  XX  .",
"..o.  ....oo... X++XX  XX  .OOo... XX ....  ....   ..   X .. ...",
"oo.   X .oo.  X++X++XX  XX  .OOOo.XX  X  ..  ..   ..  XX   .. .o",
"    X++X       XXXX .oo.  .....o.   X++XX  ..   ..  XX   ...oooo",
". X++X+XX  ..   X  .oo...  .oo..  .  X++XX   XX   XXX  .  oooo..",
"X++XX   ..  ..OooOOo..oo..oo..o...  ..  X XX++X++XX ....oo....o.",
" X++ X..  ..oOOOOo..  ..ooo.o..  .... .o.. +X XX++XX  .oo..  .  ",
".  .o..  .oOOoo.  X ... .o.   XX  oo..oOoOOOo.. XX  X  ..o..  XX",
" .ooOOo.ooOOoo. XX ..  ... XXXX ...oooooOOo..... XX  .. ..  XXX ",
".oo ..OOOoo...oo.XX  ...  . X...oOOoo..oo..  ..    XX     XX  ..",
"o. XX .Ooo.....oo. XX ...  ...oOOoOOOo. ....  ....  XX   XX  oo.",
".XX  .oo...  ....   XXX ...oOOooo...ooo.  ....  ....   XX ..oOoo",
"  XX.oo...  .. .   ..  o..oooOOo......oo.  ....   .   XX .OOOo..",
".   XXX .... XX   .  oOOooOOo. ..  ...   ...   ..oo... oOOoo.  .",
" ...  XX  ...  XX   ..oOOOo.  ..  ..    ..    ..o.oo.  .oOOoo.  ",
"  .  X ..   ... XXX   .oo..  .  ..    XX       X  ..oo  ..o..  .",
".     ..   ... X  XX . .oo..oo.  ..  XX  XX  X++X  ..oo.  ..  ..",
" ..  .  ..   XX ... XXX ..ooo....  XX     XX++X  ..   .  XX ....",
"   XX .....   XX o . X XX .o.. .  X+XX  XXX++ ..oo  ..... XX  . ",
".XX    ..   XX..oOOoo..  X .   XX  X++XX  XX.ooo.....  . .. X  .",
"  XX ... X .oo...oOOOOo.  ...    X+++XX .. .oo..  ....  ..   ..."
};
