/* XPM */
static char *blackstone_top[] = {
/* columns rows colors chars-per-pixel */
"128 128 33 1 ",
"  c #160F10",
". c #180F12",
"X c #171011",
"o c #1A1214",
"O c #1F1916",
"+ c #1F121B",
"@ c #1F181C",
"# c #201A17",
"$ c #21151B",
"% c #241C1B",
"& c #27221C",
"* c #28231E",
"= c #221720",
"- c #251B23",
"; c #281E27",
": c #281E29",
"> c #272124",
", c #2A2523",
"< c #2D2827",
"1 c #272128",
"2 c #2B252B",
"3 c #2E292C",
"4 c #302B2E",
"5 c #2E2631",
"6 c #2F2A31",
"7 c #312C36",
"8 c #332E39",
"9 c #343037",
"0 c #36313D",
"q c #38343F",
"w c #373340",
"e c #393542",
"r c #3C3947",
/* pixels */
"&7777777773**&,360rrrrrrrrrrrrrr8777777777777772#*&&&277777777777777770errrrrrrrrrrrre074&&%XXX #&&&9qqree877777777777@X      O*",
"&,77777776****668rrrrrrrrrrrrrrw777777777777777,%O%&&&*67977777777777770rrrrrrrrrrrq77777%&&%XXo&&&&47777777777777777-XX      O&",
"&&3777775*&&*688rrrrrrrrrrrrrrr8777777777777776&&++%&&&&,477777777777777errrrrrrrr7777777&&&&#$%&&&&<777777777777777-X        X*",
"&&&,<676*&&&3668rrrrrrrrrrrrrr0777777777777777,&&+++&&&&&%,7777777777777qrrrrrrrr87777774&&&&&%&&&&&%77777777777777;           &",
"&&&&&&&&&&&,7768rrrrrrrrrrrrrr8777777777777776&&&++++%&&*&&&,777777777770rrrrrrre7777777<&&&&&&&&&&&*,777777777777@XX          O",
"&&&&&&&&&&&6777wrrrrrrrrrrrrr0777777777777866*&&&++++++$%%&&&%,4777777777rrrrrrr77777777,&&&&&&&&&&&&&<7777777776+             O",
"Xoo#&&&&&&,7777rrrrrrrrrrrrrr777777777777778,&&&&$++++++++$%%&%*,37777777errrrre77777777*&&&&&&&&&&&&&*,7777777,X               ",
"XX   oO%&*67770rrrrrrrrrrrrr877777777777777>&&&&&$++++++++$+$%%;%&&,47777errrrr777777777&&&&&&&&&&&&&&&&&<2<2;o X     X@OX      ",
"         o6977errrrrrrrrrrrw67777778777765,&&&&&&$++++++++++++++%%*%&,<77qrrrrq777777773&&&&&&&&&&&%..$.XX          @578rrw5@   ",
"         -7768rrrrrrrrrrrrr88777777777776,&&&&&&&$++++++++++++++++$$%%%%,4errr777777777<&&&&&&&&&&$$.             X2777rrrrrr1  ",
"        X5777rrrrrrrrrrrrr07778677777778,&&&&&&&&%++++++++++++++++++$$$%%&&<79777777777,&&&&&&&&%%+++            o67778rrrrrrr1 ",
"        X777errrrrrrrrrrrw7778687777776,&&&&&&&&&#++++++++++++++++++++++$$%*&%*<<777777%&&&&&&&&%++++. .         17777wrrrrrrrr@",
"        @77wrrrrrrrrrrrrr87777777777763&&&&&&&&&&%+++++++++++++++++++++++++%&&&&&&*<<74&&&&&&&&%++++++..        @77777wrrrrrrrr5",
"        1wrrrrrrrrrrrrrrr7777777777773*&&&&&&&&&-%++++++++++++++++++++++++++$%&&&&*&%&&&&&&&&&$++++++++.        2777778rrrrrrrre",
"o       8rrrrrrrrrrrrrrrr777777787883&&&&&&&&&&&%O++++++++++++++++++++++++++++%%&&&&*&&&&&&&%%++++++++++        2777777wrrrrrrrr",
"O       errrrrrrrrrrrrrrr87777776866&&&&&&&&&&&oXX++++++$:555::=++++++++++++++$$%&&&&&&&&&&&$++++++++=-=o..    .37777777errrrrrr",
"O       rrrrrrrrrrrrrrwrr0777777777,&&&&&&&&OoXX  .+=:278rrrrrre7755::-++++++++++$%*%*&&%;%+++++-:557erre5=+o+.O>777777770rrrrr0",
"O       rrrrrrrrrrrrr87rrre87777773&&&&&&&&X  XX@:577777wrrrrrrr77777775%%++++++++$$%$$$+++++$557777wrrrrrr7=++$&377777777708877",
"X       rrrrrrrrrrrr877wrrrre87796&&&&&&&&XXX 1777777777rrrrrrrr77777777*&%%++++++++++++++++5777777wrrrrrrrre-+$&&67777777777776",
"X       rrrrrrrrrrrw77778wrrrre86,&&&&&&&%XXX1777777776wrrrrrrrr77777777<&&&$+$++++++++++++577777778rrrrrrrrrr:%&&,777777777777<",
"XX     Xrrrrrrrrrrw77777778wrrrr9&&&&&&&&o  17777777778rrrrrrrrrq77777773&&&%$++++++++++++5777777777wrrrrrrrrrr3&&&,67777777776&",
"XX     Oqrrrrrrrr87777777777wrrr3&&&&&&&&XX27777777777wrrrrrrrrrr87777774&&&*%$++++++++++:77777777778errrrrrrrrr3&&&,677777776*&",
"      X#9rrrrrre8777777777770rrw&&&&&&&&OX>77777777777rrrrrrrrrrrr777777<&&&&&%$+++++++++5777777777778rrrrrrrrrrr4&&&&<777776*&&",
"X      #20errw877777777777868rr3&&&&&&&> >67777777776wrrrrrrrrrrrrr07777,&&&&&%#++++++++;77777777888778errrrrrrrrr4&&&&&3671&&&&",
"@XXX   &,77777777777777777777r0*&&&&&&&X1777777777777rrrrrrrrrrrrrrrq777,&&&&&&&++++++++5880wwerrrrre7777wwwww0errr4&&&&&&&&&&&&",
"++.X  X&*37777777777777777777e,&&&&&&&X.777777777777wrrrrrrrrrrrrrrrrr07,&&&&&&&++++++++rrrrrrrrrrrrrrw77777767wrrrr7&&&&&&&&&*#",
"++++XXo&&*7777777777777777777,&&&&&&OX O777777777777errrrrrrrrrrrrrrrrrr*&&&&&&&..+++++=rrrrrrrrrrrrrrre0777777wrrrrr9&&&&&&&&&#",
"+++++XO&&&3777777777777777773&&&&&&OXX O77777777777wrrrrrrrrrrrrrrrrrrrr*&&&&&&%...++++;rrrrrrrrrrrrrrrrre777778rrrrre7&&&&&&**&",
"++++++@*&&&37777777777777773*&&&&&O    @77777777777rrrrrrrrrrrrrrrrrrrrr&&&&&&&%.. .+++5rrrrrrrrrrrrrrrrrrr07777rrrrrrr9&&&&&**O",
"++++++&&&&&&377777777777773*&&&&&XXX   @7777777775wrrrrrrrrrrrrrrrrrrrrq&&&&&&%#     +$5rrrrrrrrrrrrrrrrrrr77777qrrrrrrr6&&&&O+@",
"++++++&&&&&&&*37777777776,&&*##O      X@7777777777rrrrrrrrrrrrrrrrrrrrr0&&&&&&&#     .+;rrrrrrrrrrrrrrrrrr0777679errrrre3&&%++++",
"+++++@&&&&&&&***2667762%OOoXXXXX      XX577777777wrrrrrrrrrrrrrrrrrrrrr3&&&&&&%.      +-8rrrrrrrrrrrrrrrr0776er069errr06,&@+++++",
"+++++%&&&&&&&&&&OoX                    o&<9697777rrrrrrrrrrrrrrrrrrrrrq&&&&&&&X        :7wrrrrrrrrrrrrrr8777wrrr877w0777-$++++++",
"++++&&&&&&&&&Oo                        o&&,96777wrrrrrrrrrrrrrrrrrrrrr,&&&&&&O         -77wrrrrrrrrrrrre7777rrrrrw777777#+++++++",
"+++%&&&&&&&&O                          o&&&,7777rrrrrrrrrrrrrrrrrrrrr9&&&&&&&          .777errrrrrrrrrrrw67wrrrew7777776$$++++++",
"+$&&&&&&&&&&o                          o&&&&,770rrrrrrrrrrrrrrrrrrrrq*&&&&&&o           5777errrrrrrrrrrr870rew777777776$$++++++",
"$*&&&&&&&&&&#OXXX             X        o&&&&&,7rrrrrrrrrrrrrrrrrrrr03&&&&&&O            17777wrrrrrrrrrrrr8787777777777<$+++++++",
"&*&&&&&&&&&&&&&#Oo            XX      Xo&&&&&&,rrrrrrrrrrrrrrrrrrr97&&&&&&OX            -7777778errrrrrew877777777777772$+++++$$",
"&&&&&&&&&&&&&&&&&&&#oXXX     X X X     o&&&&&&&wrrrrrrrrrrrrrrrre77,&&&&&X            XX.777777777888877777777777777777,++++++%&",
"&&&&&&&&&&&&&&&&&&&&&&%$X   XOoXXXX    o&&&&&&&9rrrrrrrrrreeew87677&&&&&X             XXX177777777777777777777777777777&+++++%&&",
"&&&&&&&&&&&&&&&&&&&&&&&&,77erre6&&&&&&&OoOOO&&&,reww88887777777777,&&&%X                 O77777777777777777777777777774*+++++%*%",
"&&&&&&&&&&&&&&&&&&&&&<9eerrrrrre6,&&&&&&        577777777777777776&&&OXX                  1777777777777777777777777777*%+++++$**",
"&&&&&&&&&&&&&&&&&&&4qrrrrrrrrrrr773,&&&&X      X-7777777777777777,&&O X                   X57777777777777777777777777<%%+++++$%*",
"&&&&&&&&&&&&&&&&&<qrrrrrrrrrrrrr9765,&&&O       +:777777777777773&&O                      XO7777777777777777777777774%*%+++++$$*",
"&&&&&&&&&&&&&&&&<rrrrrrrrrrrrrrr077773&&O      X++57777777777776>&X     XX                  +57777777777777777777773&&&%+++++++%",
"&&&&&&&&&&&&&&&48rrrrrrrrrrrrrrrr677776,%      X+++5777777777773%X      XX                  Xo27777777777777777777,&&&&%+++++++$",
"&&&&&&&&&&&&&*37qrrrrrrrrrrrrrrrr77777772X     o+++o=5777777776@XX..    XX    XX               #57777777777777773*&&&&&$++++++++",
"$&&&&&&&&&&&&377errrrrrrrrrrrrrrr07777777652251-+++X X=1567762- XX.o..ooO@@O+....                o177777777765,&%&&&&&%$++++++++",
"+%&&&&&&&&&*<777errrrrrrrrrrrrrrr077777777778rrr71=. .++++      o++++++%&&&&&&%%$$$$++.+...        o%&**,,**&&&&&&&&%$$+++++++++",
"+$&&&&&&&&&*7777errrrrrrrrrrrrrrr77777777777wrre7781.++++.      ++++++$%&&&&&&&&&&%$+++$$.           o%&&&*&&&&%%%%$++$$++++$+++",
"++#&&&&&&&&57777rrrrrrrrrrrrrrrrw77777777778rrr877775=+++.     +++++$$%&&&&&&&&&&&&&%%%$$$..           X%&%*%%$+++++++++++++++++",
"++$%&&&&&&,77778rrrrrrrrrrrrrrrr07777790werrrre7777777=++   ++++++++=<4788974,&&&&&&&&&&%$$.             $$+++++++++++==-=++++++",
"++$$&&&&&&477778rrrrrrrrrrrrrrrr7770errrrrrrrrw77777775=+  .++++=58errrrrrrrrrq9<&&&&&&&&&%$+              .+++++++=5577775:$+++",
"++++&&&&&*777777rrrrrrrrrrrrrrre77rrrrrrrrrrrw777777777:+  +++:8rrrrrrrrrrrrrrrrrr7&&*&&&&&%$o .          ..++++++:7777777885=++",
"++++%&&&*3777778rrrrrrrrrrrrrrr87errrrrrrrrrr78777777775. ++=7rrrrrrrrrrrrrrrrrrrrrr4&&&&&&&%$..            +++$+277777777778:++",
"+++$$%&&%6777778rrrrrrrreeee8w877rrrrrrrrrrr877777777777+.+-errrrrrrrrrrrrrrrrrrrrrrrq*&&&&&&&$.           $+++$57777777777778=+",
"+++++$&&*7777777rrrrrreq77777777errrrrrrrrrw777777777776@+-errrrrrrrrrrrrrrrrrrrrrrrrrr7&&&&&&%$          .+++$777777787777777=+",
"++++++%*<7777778rrrrre8877777777errrrrrrrre6777777777778@+wrrrrrrrrrrrrrrrrrrrrrrrrrrrrr9*&&&&%.          +++-7777787777777777=+",
"++++++$%37777777errrq77778777777errrrrrrrr77777777777776+5rrrrrrrrrrrrrrrrrrrerrrrrrrrrrrq,&&&&+         +$$%77777855877777758-+",
"+++++$$%57777777qre07777ee877777rrrrrrrrr877777777777773+errrrrrrrrrrrreeqq9qqqeeerrrrrrrrq,&&&$        ++%&777778777777777788=+",
"+++++++$777777778q777777errr0877rrrrrrrr067777777777776*6rrrrrrrrrrre877777777777788eererrrq,&&$       X%%*,777777777778wrrw87=+",
"++++++$$4777777777777777errr8777rrrrrrrw77777777777777,&errrrrrrrre87777777777777777870qrrrre*&%       #&&&37777777778rrrrrrr8=+",
"++++++$*3777777777777777erre7778rrrrrre77777777778775,&,rrrrrrrrre877777777777777777777789rrrq%#       #&&%5777777778wrrrrrrrr:+",
"+++++$%*,777777777777888ere87778rrrrrr7777777777762,**&6rrrrrrrre877777777777777777777777779er4%       O&**5777777778rrrrrrrrr;+",
"++$$%&&&&7777777770errrr0777777errrrr977777763&#&&&&&&&qrrrrrrrrw7777777777777777777777777777we-XX     o&&&677777868wrrrrrrrrr:@",
"+++#&&&&&3777777777rrrre77777rrrrrrre77773,&&o o&&&&&&&rrrrrrrrr87777777777777777777777777777782       o&&&377777786rrrrrrrrrr:o",
"++%&&&&&&*7777777778rrr877770rrrrrrr777,&&&&#X o&&%#&&&qrrrrrrrr87777777777778777777778777777775       o&&&,77777777rrrrrrrrrr:+",
"+%&&&&&&&&,777777777ere77778rrrrrrr062&&&&&&X  X&% #&&&4rrrrrrrr87777777777777777777777777777777o       O&&&68777777wrrrrrrrrr-+",
"$&&&&&&&&&&,777777777e870errrrrrrrr3*&&&&&#o     X o&&&,rrrrrrrrw7777777777777777777777777777777o        O&&377777770rrrrrrrrr-+",
"%&&&&&&&&&&&,77777777777rrrrrrrrrr3&&&&&&o           %&&errrrrrre7777777777777777777777777787777+         X&&67777776errrrrrrw++",
"&&&&&&&&&&&&&&3777777778rrrrrrre9&&&&&&&#X           #&&9rrrrrrrr8777777777777777777777777777777OX        Xo&&37768787rrrrrrr-++",
"&&&&&&&&&&&&&&&*<77777777errr94,&&&&&&&&&&#o      XO%&&*<rrrrrrrr8777777777777777877777777777777X        XXXXoO-58777760rre7++++",
"&&&&&&&&&&&&&&&&&&&,,32:::--$%%&&&&&&&&&&&&&+ XX#&&&&&&&*rrrrrrrre877777877777777777777777777777XXX              X=-:25:::+++++=",
"&&&&&&&&&&&&&&&&&&&&&%$+++++$$+++$#%%&&&&&&&% XX&&&&&&&&&9rrrrrrrrw77777777777777777777777777776XX                 .+++++++++++$",
"&&&&&&&&&&&&&&&&&&&&#+++++++++++++++++$$&&&&&O #&&&&&&&&&4rrrrrrrrr8777777777777777777777777777<X                 .+++++++++++$-",
"&&&&&&&&&&&&&&&&&&&Oo+++++++++++++++++++$%&&&&o&&&&&&&&&&&rrrrrrrrre877777777777777777777777777&                 X+++++++++++$&&",
"&&&&&&&&&&&&&&&&&%O    .o.+++++$++$$+$+++$%&&&&&&&&&&&&&&&9rrrrrrrrrw77777777787777777777777773&                o+++++++$+++$%&&",
"&&&&&&&&&&&&&&&&&o          X#%$$$+$++++++$%&&&&&&&&&&&&&&4rrrrrrrrrrw777777777777777777777777,%               X+++++++++++$%&&&",
"&&&&&&&&&&&&&&&%o          X%&&&%&%%%$$+$$+$&&&&&&&&&&&&&&&<rrrrrrrrrrw77777777777777777777777&%              X+++++++++++$%&&&&",
"99944,&&&&&&#OX            #&&&&&&&&&&&%%--2444<*&&&&&&&&&&&<rrrrrrrrrew777777777777777777777<&#              +++++++++++$%&&&&<",
"rrrrrr9*&#oX              #&&&&&&&&&,27777rrrrre7772<,%&&&&&&<rrrrrrrrrr077777777777777777772&&O            .+++++++$$#%&&&&,<77",
"rrrrrrrr%                O&&&&&&&,<777777errrrrr8777772,&&&&&&<errrrrrrrrq777777777777777777&&&O            ++++++$%&&&&&&&,7777",
"rrrrrrrrr2              %&&&&&&&<7777777qrrrrrrre77777774&&&&&&<rrrrrrrrrrr8777777777777777,&&&O        ..+++++++$&&&&&&&&<77778",
"rrrrrrrrrr7o          o&&&&&&&<777777777errrrrrrr877777777,&&&&&2rrrrrrrrrrr07777777777777,&&&&o    ..++++++++++$&&&&&&&&<77777w",
"rrrrrrrrrrr0oX       #&&&&&&*37777777777rrrrrrrrrr877777777&&&&&&3rrrrrrrrrrre97777777774&&&%%+    .++++++++++++%&&&&&&&2777777e",
"rrrrrrrrrrrre+     o%&&&&&&,77777777777wrrrrrrrrrrew77777777*&&&&&,errrrrrrrrrr077777762&&&&%++.   +++++++++++++%&&&&&&,7777777w",
"rrrrrrrrrrrrrr@X  O&&&&&&&,777777777777rrrrrrrrrrrrreq8777777*&&&&&,errrrrrrrrrrre773,&&,%%$$+++  .+++=-=++++++$&&&&&&&<7777777e",
"rrrrrrrrrrrwrrr1 #&&&&&&&37777777777778rrrrrrrrrrrrrrrre877787*&&&&&&6errrrrrrrr093*&&&&%$++++++..+=:57775=++++$&&&&&*&37777777e",
"rrrrrrrrrre78err,&&&&&&&67777777777777errrrrrrrrrrrrrrrrrre8777,&&&&&&&<79947<,&&&&&&&&#$+$+++++=-7777777772=$+$&&&&&&&77777777r",
"rrrrrrrrre77770e<&&&&&&37777777777777errrrrrrrrrrrrrrrrrrrrreq77*&&&&OooXXXoO#%&&&&&&-$++++++++577777777777er8:%&&&&&&&77777778r",
"rrrrrrrr07777776&&&&&&27777777777777wrrrrrrrrrrrrrrrrrrrrrrrrrre9,&&&X    XX   .$$%&$$++++++++27777777779qrrrrre<&&&&&&7777777rr",
"rrrrrrrr69777776&&&&&<77777777777778rrrrrrrrrrrrrrrrrrrrrrrrrrrrr0,&&%XX        o+++++++++++$2777777778errrrrrrrrq,&&&&677778rrr",
"rrrrrrre77777775&&&&<77777777777788rrrrrrrrrrrrrrrrrrrrrrrrrrrrrrre&&&#X         o++++++++$$&77777778errrrrrrrrrrrr,&&&<778errrr",
"rrrrrrre77777763&&&,77777777777778rrrrrrrrrrrrrrrrrrrrrrrrrrrrrrrrr4&&&O          .+++++++%&<777778rrrrrrrrrrrrrrrrr<&&,werrrrrr",
"rrrrrrrw7777777,&&,77777777777778rrrrrrrrre8rrrrrrrrrrrrrrrrrrrrrrr0&&&&X          .++++$&&&<7778errrrrrrrrrrrrrrrrrr,&>errrrrrr",
"rrrrrrr07777796@&&2777777777777errrrrrrrrw777errrrrrrrrrrrrrrrrrrrr9&&&&#o          .++$%&&&<778rrrrrrrrrrrrrrrrrrrrre,&<rrrrrrr",
"rrrrrrr7777777@X&3677777777778errrrrrrrr8777@oO19rrrrrrrrrrrrrerrr87&&&&$++.         o@$&&&&66wrrrrrrrrrrrrrrrrrrrrrrre&&4rrrrrr",
"rrrrrre777775+XX*67777777777wrrrrrrrrrre777;  XXO&&9eeereeereeee8777,&&&%+++.         .#&&&&6wrrrrrrrrrrrrrrrrrrrrrrrre7&&4rrrrr",
"rrrrrr067777@XXO6777778677wrrrrrrrrrrrrw771XX Xo&&&,7766777787777777&&&&%++++..        O&&&,wrrrrrrrrrrrrrrrrrrrrrrrrrre&&&<rrrr",
"rrrrrr77777O o%277777777wrrrrrrrrrrrrrr075XXXXo#&&&&3777777777777777&&&&%+++++.        &&&&,rrrrrrrrrrrrrrrrrrrrrrrrrrrr,&&&,err",
"rrrrr87776@X%&&7777770errrrrrrrrrrrrrrr76oXXO&&&&&&&,67777777777777<&&&&$++++++.       &&&&3rrrrrrrrrrrrrrrrrrrrrrrrrrrr<&&&&,qr",
"rrrr07776oXo&&37778wrrrrrrrrrrrrrrrrrrr7@ Xo&&&&&&&&&&6777777777772&&&&&$$++++++      X&&&&9rrrrrrrrrrrrrrrrrrrrrrrrrrrw3&&&&&*9",
"5re77772oXX%&,77wrrrrrrrrrrrrrrrrrrrrrr7X X%&&&&&&&&&&,67777777777&&&&,%$+++++++      O&&&&0rrrrrrrrrrrrrrrrrrrrrrrrrrr77&&&&&*#",
"+=:551@X XO&&7errrrrrrrrrrrrrrrrrrrrrr05  @&&&&&&&%$$%&&<7777777,&&&&&&%++++++++     XX&&&&6770rrrrrrrrrrrrrrrrrrrrrrrw77&&&&&*#",
"++++++++.X&&4rrrrrrrrrrrrrrrrrrrrrrre872&&&&&&&&&$++++$&&&,<3<,&&&&&&&&$++++++++      o&&&&367777wrrrrrrrrrrrrrrrrrrrq774&&&&&&%",
"+++++++++$&>rrrrrrrrrrrrrrrrrrrrrrre877<&&&&&&&&%++++++-&&&&&&&&&&&&&&+$++++++++      X&&&&37777777errrrrrrrrrrrrrrre7774&&&&&&%",
"++++++++$&&7rrrrrrrrrrrrrrrrrrrrrre7777,&&&&&&&&$++++++$&&&&&&&&&&&&%$++++++++++       &&&&377777777rrrrrrrrrrrrrrrr87772&&&&&&%",
"++++++++%&&9rrrrrrrrrrrrrrrrrrrree77777&&&&&&&%$++++++++#&&&&&&&&&&%$+++++++++++       #&&&&777777778rrrrrrrrrrrrrr877773&&&&&&$",
"++++++++&&37errrrrrrrrrrrrrrrrrre877774&&&&&&&%+++++++++$%&&&&&&&&%$$+++++++++++       o&&&&,67777778errrrrrrrrrrr077777<&&&&&&%",
"++++++++%,779rrrrrrrrrrrrrrrrrrr877777,&&&&&&$$+++++++++$$&&&&&&&%$+++++++$++$++        &&&&&377777777wrrrrrrrrrr8777777,&*&&&&$",
"++++++++%3777errrrrrrrrrrrrrrrrr777777&&&&&&%+++++++++++$+%&&&&&&$++++++++++++++        X&&&&&367777777wrrrrrere87777777&&&&&&&$",
"++++++++%77777errrrrrrrrrrrrrrrw77777<&&&&&&$++++++++++$++$%&&&&$$++++++++++++++        XO&&&&&,777777777weeew7777777773&&&&&&&$",
"++++++++;777778errrrrrrrrrrrrrr877777&&&&&&#++++$$$$$%%%%%;,<5550errre93,*%&%%%%XXXXXX   X&&&&&&37777777777777777777777,&&&&&&&$",
"++++++++27777777rrrrrrrrrrrrrrr77777<%&&&&%$++++%%&&&&&<7787770errrrrrr07775,*&&&&OX  XX  O&&&&&&3777777777777777777772&&&&&&&#$",
"++++++++577777787errrrrrrrrrrrw77774&&&&&&$$++$$%&&&&,47777778errrrrrrrr77777742,&&&OoXX   &&&&&&&67777777777777777777&&&&&&&&$+",
"++++++++;777777777errrrrrrrrrr87777&&&&&&$+++++$&&&&&57777777errrrrrrrrr0777777765,&&&OX    O&&&&&&677777777777777777,&&&&&&&%++",
"+++++++++57777777770rrrrrrrrrw6777,&&&&&%-;25:$$&&&&,77777770rrrrrrrrrrrr77777777773&&&&     X&&&&&&6777777777777777<&&&&&&&&$$+",
"+++++++++$77777777778errrrrrr8773&&&&&&<7777777;&&&*77777777errrrrrrrrrrr07777777777,&&&X   XXXo&&&&&37777777777777<&&&&&&&&%$++",
"+++++++++++:8777777777errrrr976,&&&&<37777777776&&&<87777777rrrrrrrrrrrrrr777777777763&&O   X   Xo&&&&,77777777772&&&&&&&&,&$+++",
"++===+++++++=:6777777768err73,&>&&4q077777777777*&&777777777errrrrrrrrrrrre777777777963&OX      X Xo%&&,,3677763,&&&&&&&&&%%$+++",
"+577775:%$%$$++$=;::::::>&=%>-&,7err877777777777<&%877777777errrrrrrrrrrrrre088000wrerr,#       X    XO&*&&&,,,<3,,3,,&%#oXo$+++",
"577777774&&&%$++++++++++++++o-7errrq777777777777<&*7777777770rrrrrrrrrrrrrrrrrrrrrrrrrr4&              X19rrrrrre777777@    ++$=",
"7777777777&&&%$++++++++++++:0rrrrrr8777777777777<&&7777777778rrrrrrrrrrrrrrrrrrrrrrrrrr9&             @errrrrrrr77777777o   .$$5",
"77777777777&&&%+++++++++@2errrrrree7777777777777,&&77777777778rrrrrrrrrrrrrrrrrrrrrrrrrq&            >rrrrrrrrr077777777=X   $&2",
"777777777777*&%%++++++=5errrrrrrrr87777777777777,&&577777777770rrrrrrrrrrrrrrrrrrrrrrrrr&XXX      XXOrrrrrrrrrr777777777$    #%2",
"7777777777777,*&$$++-7rrrrrrrrrree77777777777777&&&<777777777778errrrrrrrrrrrrrrrrrrrrrr&&       XX#7rrrrrrrrr0777777777o    O&<",
"7777777777774*&&&$=7rrrrrrrrrrrrr877777777777777&&&&77777777777778errrrrrrrrrrrrrrrrrrrr<&XX     X&&0rrrrrrrr77777777771XX   o&&",
"577777777777*&&&&5wrrrrrrrrrrrrre777777777777777&&&&,778777777777770qrrrrrrrrrrrrrrrrrrr3&&X    X#&&rrrrrrre87777777776oXX   .&&"
};
