/* XPM */
static char *blackstone[] = {
/* columns rows colors chars-per-pixel */
"128 128 42 1 ",
"  c #160F10",
". c #180F12",
"X c #171011",
"o c #1A1214",
"O c #1E1816",
"+ c #1E131A",
"@ c #1F181C",
"# c #201A17",
"$ c #20131C",
"% c #241C1C",
"& c #27221C",
"* c #28231E",
"= c #231720",
"- c #251B23",
"; c #281F22",
": c #281F28",
"> c #262024",
", c #2A2523",
"< c #2C2827",
"1 c #272128",
"2 c #2B252B",
"3 c #2E282D",
"4 c #322D2F",
"5 c #2E2630",
"6 c #2F2A31",
"7 c #312C36",
"8 c #332E39",
"9 c #343037",
"0 c #36313C",
"q c #39353E",
"w c #3C383F",
"e c #403C3F",
"r c #373340",
"t c #393542",
"y c #3C3947",
"u c #3E3B49",
"i c #423E43",
"p c #413E4B",
"a c #45424D",
"s c #48454F",
"d c #494650",
"f c #4E4B54",
/* pixels */
"7777777776,&&&&&&%$$$$$$$$$$$$$$$+ .. ..       X @567776&&&&&%%$$$$$+$+.     ##,533252227r00r096666663&&&&&%@@$$$$$$$$$$57777777",
"77777777777<&&&&%$$$$$$$$$+$$$$$$$+.. ..    XX @57777765&&&&%%$$$$$$++..    &&&<77777777ryyyyyyr777777<&&&&&%+$+$$$$$$$$57777777",
"777777777777<&&&#$$$$$$$$$$$$$$$$$$$+... .  X-6777777783&&&%$$$$$$$$o.    X%&&&,77777777tyyyyyyy08677773&&&&&%+=$$$$$$$$:7777777",
"777777777777,&&&$$$$$$$$$$$$$$$$$$$$$$$. XX@67777777786,&&&%$$$$$$$+     X&&&*&*77777777tyyyyyyyy98777863&&&&&$+$$$$$$$$=7777777",
"777777777777,&&&$$$$$$$$$$$$$$$+$$$$$$$$+:7777777777777,&&$$$$$$$$.     X&&&&&&&77777777yyyyyyyyyy07777775&&&&&@$$=++=$$$-777777",
"777777777777&&&&$$$$$$$$$$$$$$$$$$$$$$%1667777777777776&%$$$$$$$$.     .&&&&&&&&67777777yyyyyyyyyyt877777763,&&%$$++$+$$$$-77777",
"777777777777&&&&$$$$$$$$$+$$$$$$$$$%$;77777777777777776,=$$+$$=++    Xo6&&&&&&&&67777770yyyyyyyyyyyy867777776863=.++$+$$$$$-7777",
"777777777777&&&&$$$$$$$$$$$$$$$$$$%%%677777777777777773@$$$$$$+$+    =77,&&&&&&*6777777ryyyyyyyyyyyyt87777777778=+...+$$$$$$-177",
"367777777776&&&%$$$$$$%---%2%&&&&&&%377777777777868675=$$$$$$$$$X X+3777<&&,<2377777777ryyyyyyyyyyyyyt8877777786-$.. .++$$$$$%%,",
"&&&<37777773&&&%$$$-67777;33&&&&&&&,7777777777776875=$$$$$$$$$$$X @67777667777777777777tyyyyyyyyyyyyyyr677687768-$+. ..+$$$$$$%&",
"&&&&&&,36673&&&%$=:777772&7&&&&&&&&477777777777765@$$$$$$$$$$$+++1777777777777777777777yyyyyyyyyyyyyyyyt77867777-$$+   X+$$$$$$%",
"%&&&&&&&**3<&&&%=5777777%7,&&&&&&&,777777777777:$$$$$$$$$$$$$$$%67777777777777777777777uyyyyyyyyyyyyyyyyr7787777-$++o  ..$$$$$$%",
"$&&&&&&&**&&&&&;7777777,<3&&&&&&&&77777777777:=$$$$$$$$$$$$$$=%>77777777777777777777770yyyyyyyyyyyyyyyyyy0777777-$$$$.....$$$$$$",
"$$&&&&&&&*&&&&&37777777%6,&&&&&&%3777777777-$$+$$$$$$$$$$$+%&&&&6777777777777777777779yyyyyyyyyyyyyyyyyyyt777776-+$$$+.. ..$$$$$",
"$+$$$%%%&&&&&&&3777777&<2&&&&&&&,77777875-$$$+$$$$$$$$$$$%&&&&&&677777777777777777760yyyyyyyyyyyyyyyyyyyyyr7766&&%$$$$+   ..$$$$",
"o++o++++++@#%&&7777773&7&&&&&&&&576635:-$$$$$$$$$$$$$$$$=&&&&&&&57777777777777777770yyyyyyyyyyyyyyyyyyyyyyy776&&&%$$$$++  ......",
"             XXo=::77*3,&&&&&&&&&&&&&&&$$$$$$$$$$$$$$$$$%&&&&&&&3787777777777777770yyyyyyyyyyyyyyyyyyyyyyyy03&&&&&%%$$$$+.      ",
"             XX$$$$$%&&&&&&&&&&&&&&&&&&&#$$$$$$$$$$$$$$$*&&&&&&&376877777777777770yyyyyyyyyyyyyyyyyyyyyyyyy0&&&&&&&%$$$$.       ",
"             X$$$$$%&&&&&&&&&&&&&&&&&&&&%%$$$$$$$$$$$$$$**&&&&&&,7767777777777770yyyyyyyyyyyyyyyyyyyyyyyyy0*&&&&&&&&%%$$...     ",
"            X$$$$%%%&&&*&&&&&&&&&&&&&&&&&&%$$$$$$$$$$$$%&&&&&&%,5678777777777770yyyyyyyyyyyyyyyyyyyyyyyyy0&&&&&%%&&&&%$$....    ",
"           o$$$$$%&&&&&&&&&&&&&&&&&&&&&&&&&%$$$$$$$$$$$%&&&&%,7777777777777790yyyyyyyyyyyyyyyyyyyyyyyyyu9*&&&&$$$$%%&&&%.       ",
"          o$$$$$**&&&&&&&&&&&&&&&&&&&&&&&&&&%$$$$$$$$$$&&&**777777777768760ryyyyyyyyyyyyyyyyyyyyyyyyyyy9**&&&%$$$$$$%&*%        ",
"        ..$$$$$&*&&&&&&&&&*&&*&&&&&&&&&&&&&&&%$$$$$$$$$&&*47777777778688ryyyyyyyyyyyyyyyyyyyyyyyyyyyyy0*&&&&$$$$$$$$&&&&        ",
"        +$$$$$&&&&&&&&&&&&****,<<<23,&&&&&&&&&%$$$+$$$$,37777777777770ryyyyyyyyyyyyyyyyyyyyyyyyyyyyyy0*&&&&#$$$$$$$$&&&%        ",
"       +$$$$%%&&&&&&&%&&<777777777777<&&&&&&&&&%$$$$$$$777777777778ryyyyyyyyyyyyyyyyyyyyyyyyyyyyyyyy9*&&&&#$$$$$$$$$&&&&        ",
"      +$$$$$&&&&&&&%&<77777777777777772&&&&&&&&&%$$$$$$7777777770tyyyyyyyyyyyyyyyyyyyyyyyyyyyyyyyyu9**&&*$$$$$$$$$$$&&&&        ",
"     +$$$$%&&&&&&&<477777777777777777773&&&&&&&&%%$$$$$3777777777tyyyyyyyyyyyyyyyyyyyyyyyyyyyyyyyy9*&&&&$$$$$$$$$$++&&&O        ",
"    .+$$$%&&&&&,4777777777777777777777777&&&&&&&&&%$$$$:7777777777ryyyyyyyyyyyyyyyyyyyyyyyyyyyyyuw*&&&&%$$$$$$$$$$++&&&&        ",
"...$$$$$%&&&&&2777777777777777777777777777&&&&&&&&&%$$$-77777777777tyyyyyyyyyyyyyyyyyyyyyyyyyyuai*&&&&%+$$$$$$$$$$+$&&&O        ",
"...$$$$%&&&&&377777777777777777777777777777*&&&&&&&&$$$$777777777777tyyyyyyyyyyyyyyyyyyyyyyyyafe&&&&&#=+$$$$$$$$$$$$&&&O        ",
"  .$$%%*&&&&47777777777777777777777777777777<&&&&&&&%$$$5777777777777tyyyyyyyyyyyyyyyyyyyyyuffa&&&&&=$+$$$$$$$$$$$$$&&&O        ",
"  +$$%&*&&&2777777777777777777777778888800qqw7&&&&&&&%$$-7777777777777yuyyyyyyyyyyyyyyyyyufffu&&&&&$$$$$$$$$$$$$$$$%&&&o        ",
"  $$&&&&&&4777777777777777rrrrttyyyyyyyyyyyyyy8%&&&&&&$$$-7777777777778pffddppyyyyyyyyyidfffi&&&&&%+$$$$$$$$$$$$$$$&&&&O        ",
" .$%&&&&<777777777777777ryyyyyyyyyyyyyyyyyyyyyyq&&&&&&%$$$:7777777777787pfffffpyyyyyypsffffi&&&&&%$$$$$$$$$$$$$$$$&&&&&o        ",
" .$%&&&377777777777777rtyyyyyyyyyyyyyyyyyyyyyyyyr,&&&&&%$$$-7777777777777pfffffpyyypsfffffi&&&&&%$$$=+$$$$$$$$$$$%&&&&&o        ",
" +%&%,777777777777778yyyyyyyyyyyyyyyyyyyyyyyyypyit<&&&&&$$$$=5777777777778pfffffpyaffffffi,&&&&&%$$$+$$$$$$$$$$$%&&&&&&         ",
" +%&<77777777777778tyyyyyyyyyyyyyyyyyyyyyyyyyyyyyyy<&&&&%$$$$$-277777777778pffffffffffffi*&&&&&&=$$$$$$$$$$$$$$#**&&&&O         ",
" +%77777777777788tyyyyyyyyyyyyyyyyyyyyyyyyyyyyyyyyy0&&&&&$$$$$$$%:777777777tpffffffffffe**&&&&&&$$$$$$$$$$$$$$$&&***&O          ",
" %7800qqryyyyyyyyyyyyyyyyyyyyyyyyyyyyyyyyyyyyyyyyyq7&&&&&%$$$$$$$$=:67777778yyffffffffi*&&&&&&&&$$$$$+$$$$$$$$&&&&&*o           ",
" 7yyyyyyyyyyyyyyyyyyyyyyyyyyyyyyyyyyyyyyyyyyyyyyyt77&&&&&&%$$$$$$$$$$:777777tyypfffffa*&&*&&&&&%$$$$$$$$$$$$$&&&&&&o            ",
".yyyyyyyyyyyyyyyyyyyyyyyyyyyyyyyyyyyyyyyyyyyyyyyr777&&&&&&%%$$$$$$$$$$$=57778yyypfffa&&&&&&&&&%$$$$$$$+$$++.%&&&&&o             ",
"-yyyyyyyyyyyyyyyyyyyyyyyyyyyyyyyyyyyyyyyyyyyyyyr7777&&&&&&&&$$$$$$$$$$$$$=:77yyyyysi&&&&&&&&&%$$$$$$$$$$+. $&&&&&O              ",
"5yyyyyyyyyyyyyyyyyyyyyyyyyyyyyyyyyyyyypyyyyyyyt77777,&&&&&&&%$$$$$$$$$$$$$$=:7yyyy0*&&&&&&&%%$$$$$$$$$++...%&&&&O               ",
"tyyyyyyyyyyyyyyyyyyyyyyyyyyyyyyyyyypdffyyyyyyt777777,&&&&&&&&%$$$$$$$$$$$$$$==:ry0*&&&&&&&&%$$$$$$$$$$+  o&&&&&2X               ",
"yyyyyyyyyyyyyyyyyyyyyyyyyyyyyyyyyydfffffyyyyt7777777<&&&&&&&&&%$$$$$$$$$$$$$$$$$;&&&&&&&%%%$$$$$$+$$$$   #&&&&37X              O",
"yyyyyyyyyyyyyyyyyyyyyyyyyyyyyyyydfffffffdyyt77777777<&&&&&&&&&&%$$$$$$$$$$$$$$$$$&&&&&&&-$$$$$$$$$$$+.   &&&&377o              &",
"yyyyyyyyyyyyyyyyyyyyyyyyyyyyppdfffffffffpyt7777777772&&&&&&&&&&%$$$$$$$$$$$+$$$$%&&&&&&%$$$$$$$$$$$$.   X&&&3776+o            &,",
"yyyyyyyyyyyyyyyyyyyyyyyyyyypdffffffffffdyr7777777777<&&&&&&&&&&&%$$$$$$$$$$$$$$$%&&&&&%#$$$$$$$$$$$...  O&&37773$@           &&<",
"yyyyyyyyyyyyyyyyyyyyyyyypppffffffffffddyr77777675-@ o&&&&%%&&&&&%%$$$$$$$$$$+$$$%&&&&%$$$$+=$$$$$+o     %%:77775$$+X       X&&&<",
"yyyyyyyyyyyyyyyyyyyyyyypdfffffffffdppy8769776>@XXX  o&&&&$$%&&&&%*%$$$$$$$$$$$$$%&&&=+$$$$$+$$$$$o.    X%5777775$$$$X.     o&&&<",
"yyyyyyyyyyyyyyyyyyyyypdffffffffppyyr7777671OX   X   O&&&%$$$%&&&&*%$$$$$$$$$$$+$#&&&$$$$$$$$$$+++.     o4777777:$$$$+X     o&*&,",
"78yyyyyyyyyyyyyyyyyydffffffffpyyy8777775-XX X       O&&&-$$$$$%&&**%%$$$$$$$$$$$%&&&+$$$$$$$$$$+..    .17777778:$$$$$+X.   o&***",
"7778ryyyyyyyyyyyypdffffffffpyyt8777671+X            O&&&%+=$$$+=&&&&&&&&%%%$$$$$%&&&$$$$$$+$$++..   ..3y8777777=$$$$$$$$+$.O&&&*",
"777777tyyyyyyyypfffffffffdpyt877775%..              O&&&%=++$$$$%&&&&&&&&*%$$$$$%&&&$$$$+$=++.      .7yyy877777=+$$$$$$$$$$%&&*,",
"77777777yyyyyyypffffffffdpt877772+                  #&&&%+$$$$$$$%%&&&&%&&%$$$$$&&*%$$$$=++.    XX o8yyyyy77775$$$$$$$$+$$$$&&**",
"7777777777ryyyyyypdfffdpt77775-$$+                 X&&&&%$$$$$$+$%;,,<33&&%+$$$$&&&-$$$$o.      XX-ryyyyyyq777$$$$$$$$$$$$$#&**,",
"777777777778ryyyyyyuapr8777:=$+$$$XX                &&&&@+$2555777777777&&&%$$$$&&&%++XX  XX  o16tyyyyyyyyyr7=$$$$$$$$$$$$$$&&&,",
"77777777777777ryyyyyt8773-$$$$$$$$+                X&&&&%+:7777777777776&&&&%$$$&&&@+oXX Xo@58ryyyyyyyyyyyyt5$$$$$$$$$$$$$$$&&&,",
"77777777777777788yy8771=$$$$$$$$$$+                O&&&&$-67777777777773&&&&&%$$&&&OXXX@1577rt8yyyyyyyyyyyyt=$$$$$$$$$$$$$$%&&&,",
"77777777777777777773-$$$$$$$$$$$$++               X#&&&&=677777778777772%&&&&&*%&&&@>2777777rt8yyyyyyyyyyyy5$$$$$$$$$$$$$$$$&&&,",
"77777777777777776<&&$$$$$$$$$$$$$$$o.           O&&&&&&&577777770yytq77:$$%&&&&&&&&677777777ry7yyyyyyyyyy8:$$$$$$$$$$$$$$$$%&&&,",
"7777777777777777,%&&%$$$$$$$$$$$$$++        Xo&&&&&&&&*377777777tiyyt77:$+##&&&&&&&6777777778y8tyyyyyyy7$$$$$$$$$$$$+$$$$$$$&&&,",
"7777777777777777,&&&$$$$$$$$$$$$$$$$       @&&&&&&&&&<7777777777tyyy877-$$$  o#%&&>7777777778y8yyyyyt5$$$$$$$$$$$$$$$$$$$$$%&&&*",
"7777778777777777&&&&$$$$$$$$$$$$$$$$.     @&&&&&&&&,477777777777tyyy977-$$$.   .XXO1257777777y8ryyr:+$$$$$$$$$$$$$$$$$$$$$$$&&&,",
"7777777777777777,&&&$+$$$+$$$$$$$$$$o   X%&&&&&&&&377777777778tyyyyy777-$$$..         .=:::55t755-$$$$$$$$$$$$$$$$$$$$$$$$$$*&&*",
"3777777777777777&&&&$$$$$$$$$$$$$$$$$   %&&&&&&&:77777777770yyyyyyyy777-$$$.         .+$+$+$$$$$$$$$$$$$$$$$$$$$$$$$$$$$$$$$****",
"&377777777777777&&&&$$$$$$$$$$$$$$$$$XX&&&&&&&%$177777777qyyyyyyyyyr777$$$$+         ++$$$=+$$$$$$$$$$$$$$$$$$$$$$$$$$$$$$$%&&&&",
"&&67777777777777&&%;$$$$$$$$$$$$$$$$$o%*&&&*%%$$6777777qyyyyyyyyt07777:$$$$.        .+$$$$$$$$$$$$$$$$$$$$$$$$$$$$$$$$$$$$$$&&&&",
"&&&6777777777777&&&%$$$$$$$$$$$$$$$$$%&&&&&*%$$$777778ryyyyyyyt877777:$$$$$+       .$$$$$$$$$$$$$$$$$$$$$$$$$#%&&%$$$$$$$$$$&&&&",
"&&&&377777777776&&*%$$$$$$$$$$$$$$$$&&&&&&&&%$$-77778yyyyyyyyy8777775$$$$$$.    .. +$+$$$$$$$$$$$$$$$$$$$$%%*&*&&&&%$$$$$$$#&*&&",
"&&&&&67677777777&&&%$$$+$$$$$$$$$$$%&&&&&&&&$$$:77778yyyyyyyyt777775$$$$$$$.    ...$$$$$$$$$$$$$$$$$$$$$%*&&&&&&&&&&&#$$$$$$&*&&",
"&&&&&&&,,<233447&&&%$$$$$$$$$$$$$$&*&&&&&&&&$$$$27777tyyyyyyy877772$$$$$$$$.    ..$$$$$$$+$$$$$$$$$$%%;-*&&&&&&&&&&&&&%$$$$$$%&&",
"&&&&&&&&&&&&&&&&&&&%$$$$$$$$$$$$$&&&&&&&&&&%$$$$$-5777pyyyyyw77<&;$$$$$$$$+.    .$$$$$$$$$$$$$$$$%%%&&&&&&,273&&&&&&&&&&o +$$$%%",
"&&&&&&&&&&&&&&&&&&&%$$$$$$$$$$$$&&&&&&&&&&&%$$$$$+$:77ryyyyy7,&&%$$$$$+$$+.    .$$$$$$$$$$$$$$%%%%&&&&&,3777773&&&&&&&&&o  #$$$%",
"$&**&&&&&&&&&&&&&&&$$$$$$$$$$$#&&&&&&&&&&&%$$$$$$$$$=57yyy9<*&&%$$$$$$$$$.     +$$$$$$$+$$$$%%&&&&&&237777777773&&&&&&&&oX X.$$$",
"$$%*&&&&&&&&&*&&&&&$$$$$$$$$$%&&&&&&&&&&%%%$$$$$$$$$$$:79**&*&$$$$$$$$$$..   .++$$$$$$$$$%&&&&&%&,48777777777777<&&&&&&&oX   $$$",
"$$$%&&&&&&&&&&&&&&%$$$$$$$$%&&&&&*&&&&&&%$++$$$$$$$$$$$$&&&&%$$$$$$$$$$+     +$+$$$$$$%&&&&&&&<3777777777777777793&*&&&&.    .$$",
"$$$$#*&&&&&&&&&&&%$$$$$$$%**&&&&&&&&&%$$$$ +$$$$$$$$$$$%*&&&$$$$$$$$$$..   .o$$$$$$%%&&&&&&<77777777777777777777773&&&&&o      $",
"+$$$$$%%%&&&&&%&&%+$$$$%&&&%&&&&&&%$$$$$$$..$$$$$$$$$$$$&&&&$$$$$$$$$+     X$$$=%%&&&&&&2777777778777777777777777773**&&o       ",
".$$$$$$$$%,,,,,,;----;;,,,,<,,,,%$#$$$$$$. ...$$$$$$$$$$&&&*%$$$$$$$+    X+-;;,:,,,,<47088qqrrrrrrtryq88877777777777<&&&o       ",
".$$$$$$-3777777777777777777777774$$$$$$$$      ..$$$$$$$&&&&&&%#$$$$#->2577777778rryyyyyyyyyyyyyyyyyyyyyyyyyr008777773&&o       ",
"$$$$$#%777777777777777777777777777-$$$$$$         .$$$$$&&&&&&&&&&&,777777778ryyyyyyyyyyyyyyyyyyyyyyyyyyyyyyyyyy0777773&o       ",
"$$$$%&&77777777777777777777777777772$$$$$.          ..+$&&&&&&&&&&*,77778ryyyyyyyyyyyyyyyyyyyyyyyyyyyyyyyyyyyyyy07777773o      X",
"$$&*&&&777780888888777777777777777773%$$$$$.        . ..#&&&&&&&&&&<0tyyyyyyyyyyyyyyyyyyyyyyyyyyyyyyyyyyyyyyyyyy77777777O    XX$",
"%&*&&&&3778yyyyyyyyyy87777777777777773%%$$$$$..          O***&&&&&%<yyyyyyyyyyyyyyyyyyyyyyyyyyyyyyyyyyyyyyyyyyyy07777777+    X+$",
"&&&&&&&3777yyyyyyyyyyyy077777777777777<%&$$$$$$+          o&&&&&&&&<yyyyyyyyyyyyyyyyyyyyyyyyyyyyyyyyyyyyyyyyyyyy77777773o    o$%",
"&&&&&&&3777yyyyyyyyyyyyyyr7777777777777,&&%%$$$$$          o&&&&&&&<yyyyyyyyyyyyyyyyyyyyyyyyyyyyyyyyyyyyyyyyyyyy7777773&o   X$%&",
"&&&&&&&<777ryyyyyyyyyyyyyyyr777777777777*&&&%$$$$$          o*&&&&&,ryyyyyyyyypaappyyyyyyyyyyyyyyyyyyyyyyyyyyyyt777773&&O  .+%&&",
"&&&&&&&<7770yyyyyyyyyyyyyyyyyq77777777777&&&&&%$$$$          X&&&&&,78yyyyyypfffffffddpyyyyyyyyyyyyyyyyyyyyyyyyy77772&&&    &&&&",
"&&&&&&&,7778yyyyyyyyyyyyyyyyyyt77777777774&&&&&%$$$$.          &&&&,777tyypdffffffffffffdpyyyyyyyyyyyyyyyyyyyyy8777<&&&&O  &&&&&",
"&&&&&&&,7778yyyyyyyyyyyyyyyyyyyr77777777772&&&&&%#$$$.         O&&&*77778yypdfffffffffffffppyyyyyyyyyyyyyyyyy877773&&&&&  &&&&&&",
"&&&&&&&,7777yyyyyyyyyyyyyyyyyyyyr77777777773&&&&*%$$$$.        o&&&,777777qtyypffffffffffffdpyyyyyyyyyyyyyyq77777<&&&&&&O&&&&&&&",
"&&&&&&&&7777yyyyyyyyyyyyyyyyyyyyyr7777777777,&&&*&%$$$$.       o&&&%277777778tyypdfffffffffffdyyyyyyyyyyyq777777<&&&&&&&&&&&&&&&",
"&&&&&&&&7777ryyyyyyyyyyyyyyyyyyyyyr7777777777,&&&&*%$$$$o      O&&&%$-777777777ryyydfffffffffffpyyyyyyyy0777777,&&&&*%#$%&&&&&&&",
"&&&&&&&&77770yyyyyyyyyyyyyyyyyyyyyyt7777777777&&&&&&%$$$$o     o&&&&$$$:6777777777ryypdfffffffffdyyyyy07777777<&*%#$$$$+&&&&&&&&",
"&&&&&&&&57778yyyyyyyyyyyyyyyyyyyyyyyq7777777777&&&&**%$$$#O    o&&&%$$$$$=-5777777778yypdffffffdpyyyr7777772<%%%$$$$$$$+%&&&&&&&",
"&&&&&&&&,7777tyyyyyyyyyyyyyyyyyyyyyyyr777777777>&&&&&&&$$$$+.. o&**%$$$$$$$$==:57777778tyypdfdpyyyy877752,&*&$$$$$$$$$+$%&&&&&&&",
"&&&&&&&&&27777yyyyyyyyyyyyyyyyyyyyyyyyt77777777<&&&&&&&&$$$$+. o&**%$$$$$$$$$$$$77777777yypypyyyyq773<,&&&&%$$$$$$$$+$$$%&&&&&&&",
"&&&&&&&&%&77770yyyyyyyyyyyyyyyyyyyyyyyyr7777777<&&&&&&&&&%$$$+.X&&%%$$$$$$$$$$$$-77777777yyytyir73<&&&&&%%$$$$$$$$$$+$$$%*&&&&&&",
"&&&&&&&&,<477770yyyyyyyyyyyyyyyyyyyyyyyyr7777772&&&&&&&&&%$$$$++&&%=$$$$$$$$$$$$$:77777770yyyr4,%&&&&&&%-$$$$$$$$$$$$$$$%*&&&&&&",
"&&&&*<377777770tyyyyyyyyyyyyyyyyyyyyyyyyy7777775&&&&&&&&&&&%$$$$&&&%$$$$$$$$$$$$$$577777770r7<%&&&&&&%%$$$$$$$$$$$$$$$$$%&&&&&&&",
"&,2777777778tyyyyyyyyyyyyyyyyyyyyyyyyyyt77777776&&&&&&&&&&&&%$$%&&*%$$$$$$$$$+$$$$-7777777777,*&&&%#$$$$$$$$$$$$$$$$$$$$%&&&&&&&",
"777777770ryyyyyyyyyyyyyyyyyyyyyyyyyyyyy777777776&&&&&&&&&&&&%%$$&&&%$$$$$$$$$$$$$$$:777777777,%%%$$$$$$$$$$$$$$$$$$$$$$$%*&&&,<4",
"777778qyyyyyyyyyyyyyyyyyyyyyyyyyyyyyyt7777777777&&&&&&&&&&&&&&%#&&&&$$$$$$$$$$$$$$$$:77777777%%$$$$$$$$$$$$$$$$$$$$$$$$$&*,37777",
"7700yyyyyyyyyyyyyyyyyyyyyyyyyyyyyyuap77777777777*&&&##o%&&&&&&&%&&&%%$$$$$$$+$$$$$$$+=7777777$$$$$$$$$$$$$+$$$$$$$$$$$$$27777777",
"qyyyyyyyyyyyyyyyyyyyyyyyyyyyyyyyuafa777777777777,#OX   +&&&&&&&&&&&&$$$$$$$$$$$$$$$$$$$:77777$$$$$$$$$$$$$$$$$$$$$$$$$$$37777778",
"yyyyyyyyyyyyyyyyyyyyyyyyyyyyyyasffp87777777772=+       +#&&&&&&&&&&%$$$$$$$$$$$$$$$$$$$$-7775$$$$$$$$$$$$$$$$$$$$$$$$$$$57778ryy",
"yyyyyyyyyyyyyyyyyyyyyyyyyyyuaffffa877777775@           +$%&&&&&&&&&%$$$$$$$$$$$$$$$$$$$$-7775$$$$$$$$$$$$$$$$+$$$$$$$$$$38ryyyyy",
"yyyyyyyyyyyyyyyyyyyyyyyyypsfffffu777777775$            o$$&&&&&&&&&&%$$$$$$$$$$$$$$$$$$$-7776$$$$$$$$$$$$$$$$$$$$$$$$$$$0yyyyyyy",
"yyyyyyyyyyyyyyyyyyyyyyyafffffffar77777775$.           XX$$%&&&&&&&&&%%%$$$$$$$$$$$$$$$$$-7772$$$$$$$$$$$$$$+$$$$$$$$$$$$0yyyyyyy",
"yyyyyyyyyyyyyyyyyyyyuaffffffffa777777775$$.             $$$&&&&&&&&&&&%%$$$$$$$$$$$$$$$$-777:=$$$$$$$$$$$$$$$$$$$$$$$$$$0yyyyyyy",
"yyyyyyyyyyyyyyyyyypdfffffffffa777777775$$$              $$$$O#%&&&&&&&&*-$$$$$$+$$$$$$$$-677:$$$$$$$$$$$$$$$$$$$$$$$$$$%0yyyyyyy",
"yyyyyyyyyyyyyyiiafffffffffffa777777775$$$+.             $$$$.   ..##&&&&&&%$$$$$$$$$$$$$%&,7:$$$$$$$$$$$$$$$$$$$$$$$$%&&qiyyyyyy",
"yyyyyyyyyyyyyydffffffffffffa777777775$$$$+              +$$$    .   #&&&&&&&$$$$$$$$$$$$%&**-$$$$$$$$$$$$$+$$$$$$$$$&&&&qyyyyyyy",
"yyyyyyyyyyypdfffffffffffffa777777775$$$$$.              +$$$. .      &&&&&&&&#$$$$$$$$$$%&&&%$$$$$+$$$$$$$$$$$$$$%%&&&&&8yyyyyyy",
"yyyyyyyyypfffffffffffffffa77777777:$$$$$+               .$$$$...     O&&&&&&&&&$$$$$$$$$%&&&%$$$$$$$$$$$$$$$$$$$%&&&&&&&qyyyyyyy",
"yyyyyyyyyfffffffffffffffa77777777-$$$+$$+               .$$$$$+.      &&&&&&&&&&$$$$$$$$%&&&$$$$$$$$$$$$$$$$$$%&%*&&&&&&qyyyyyyy",
"yyyyyyyypffffffffffffffa77777772$$$$$=++.               .=$$$$$+.     O&&&&&&&&&%%$$$$$$%&&&%$$$$$$$$$$$$$$$#&&&&*&&&&&&0yyyyyyy",
"yyyyyyyypfffffffffffffa0777776%$+$$$$$+=.              ..$$$$$$$$$     #&*&&&&&&&&%$$$$$&&&&$$$$$$$$$$$$$$$%&&&&&&&&&&&&0yyyyyyy",
"yyyyyyyydffffffffffffa777777-$$$$$$$$$++               ..%$$$$$$$$$    .#%%&&&&&&&&%$$$$&&&&$$$$$$$+$$$$$%&&&&&&&&&&&&&&0yyyyyyy",
"yyyyyyyyffffffffffffp777772=$$$$$$$$$$++                X&&&&%#%$$$$.      XoO#&&&&&%#$$&&&&$$$$$$$$$$%%&&&&&*&&&&&&&&&&4778r0qy",
"&<4qyyyyfffffffffffp87777-$$$$$$$$$$$+.                 .&&&&&&&&%$$+#         o&&&&&&$$&*&&$$$$$$$%%%&&&&&&&&&&*&&&&&&*7777772,",
"7,%&<qyifffffffffdi78777:$$$$$$$$$$+$o.                 o&&&&&&&&&%$$$$X         &&&&&&#&&&&$$$$$%&&&&&&&&&&&&&&&&&&&&&&47777777",
"773&&&3qfffffffaq877777-$$$$$$$$$$$++..                 #&&&&&&&&&%%$$$$..        #&&&&&&&*%$$%&%%&&&&&&&&&&&&&&&&&&*&&%37777777",
"7777*&&&<effai87777773%$$$$$$$$$$$$+                    #&&&&&&&&&&&%$$$$#         #&&&&&&&&%*&&&&&&&&&&&&&&&*&&&&&&&%%$37777777",
"777773&&&&,47777742*%$$$$$$$$$$$$++.                   o&&&&&&&&&&&&&&$$$$X         o&&*&&&&&&&&&&&&&&&&&&&&&&&&&&&&$$$$57777777",
"7777773*&&&&&34,*&&%$$$$$$$$$$$$++                X..O17*&&&&&&&&%&%$$$$$            o%*&&&&&&&&&&&&&&&&&&&&&&&&&%%$$$$$37777777",
"77777777<&&&&%&&*&%%$$$$$$$$$$$$+                 X+1777&&&&&&&&%%%$$$$$.             X%&&&&&&&&&&&&&&&&*&&&&&*%%$$$$$$+57777777"
};
